<mxfile host="app.diagrams.net" agent="Mozilla/5.0 (Macintosh; Intel Mac OS X 10_15_7) AppleWebKit/537.36 (KHTML, like Gecko) Chrome/131.0.0.0 Safari/537.36" version="24.9.0">
  <diagram name="Page-1" id="03018318-947c-dd8e-b7a3-06fadd420f32">
    <mxGraphModel dx="1434" dy="700" grid="1" gridSize="10" guides="1" tooltips="1" connect="1" arrows="1" fold="1" page="1" pageScale="1" pageWidth="1100" pageHeight="850" background="#000000" math="0" shadow="0">
      <root>
        <mxCell id="0" />
        <mxCell id="1" parent="0" />
        <mxCell id="677b7b8949515195-3" value="Search" style="strokeWidth=1;shadow=0;dashed=0;align=center;html=1;shape=mxgraph.mockup.forms.searchBox;strokeColor=#005700;mainText=;strokeColor2=#008cff;fontColor=#ffffff;fontSize=17;align=left;spacingLeft=3;rounded=0;labelBackgroundColor=none;comic=1;fillColor=#008a00;" parent="1" vertex="1">
          <mxGeometry x="400" y="35" width="220" height="30" as="geometry" />
        </mxCell>
        <mxCell id="677b7b8949515195-4" value="Topic 1" style="text;html=1;points=[];align=left;verticalAlign=top;spacingTop=-4;fontSize=14;fontFamily=Verdana;fillColor=#008a00;fontColor=#ffffff;strokeColor=#005700;" parent="1" vertex="1">
          <mxGeometry x="770" y="40" width="60" height="20" as="geometry" />
        </mxCell>
        <mxCell id="677b7b8949515195-5" value="Topic 2" style="text;html=1;points=[];align=left;verticalAlign=top;spacingTop=-4;fontSize=14;fontFamily=Verdana;fillColor=#008a00;fontColor=#ffffff;strokeColor=#005700;" parent="1" vertex="1">
          <mxGeometry x="860" y="40" width="60" height="20" as="geometry" />
        </mxCell>
        <mxCell id="677b7b8949515195-6" value="Topic 3" style="text;html=1;points=[];align=left;verticalAlign=top;spacingTop=-4;fontSize=14;fontFamily=Verdana;fillColor=#008a00;fontColor=#ffffff;strokeColor=#005700;" parent="1" vertex="1">
          <mxGeometry x="930" y="40" width="60" height="20" as="geometry" />
        </mxCell>
        <mxCell id="677b7b8949515195-7" value="Topic 4" style="text;html=1;points=[];align=left;verticalAlign=top;spacingTop=-4;fontSize=14;fontFamily=Verdana;fillColor=#008a00;fontColor=#ffffff;strokeColor=#005700;" parent="1" vertex="1">
          <mxGeometry x="1005" y="40" width="60" height="20" as="geometry" />
        </mxCell>
        <mxCell id="677b7b8949515195-16" value="" style="verticalLabelPosition=bottom;shadow=0;dashed=0;align=center;html=1;verticalAlign=top;strokeWidth=1;shape=mxgraph.mockup.graphics.simpleIcon;strokeColor=#314354;rounded=0;labelBackgroundColor=none;fontFamily=Verdana;fontSize=14;fontColor=#ffffff;comic=1;fillColor=#647687;" parent="1" vertex="1">
          <mxGeometry x="35" y="100" width="1030" height="360" as="geometry" />
        </mxCell>
        <mxCell id="LygwtZGYXbD4ZYPNaPvQ-1" value="&lt;font style=&quot;font-size: 22px;&quot;&gt;LOGO&lt;/font&gt;" style="rounded=1;whiteSpace=wrap;html=1;fillColor=#008a00;strokeColor=#005700;fontColor=#ffffff;" vertex="1" parent="1">
          <mxGeometry x="40" y="30" width="120" height="60" as="geometry" />
        </mxCell>
        <mxCell id="LygwtZGYXbD4ZYPNaPvQ-4" value="" style="endArrow=none;html=1;rounded=0;" edge="1" parent="1">
          <mxGeometry width="50" height="50" relative="1" as="geometry">
            <mxPoint x="5" y="120" as="sourcePoint" />
            <mxPoint x="1095" y="120" as="targetPoint" />
          </mxGeometry>
        </mxCell>
        <mxCell id="LygwtZGYXbD4ZYPNaPvQ-7" value="" style="rounded=1;whiteSpace=wrap;html=1;fillColor=#b0e3e6;strokeColor=#0e8088;" vertex="1" parent="1">
          <mxGeometry x="105" y="490" width="150" height="120" as="geometry" />
        </mxCell>
        <mxCell id="LygwtZGYXbD4ZYPNaPvQ-8" value="" style="rounded=1;whiteSpace=wrap;html=1;fillColor=#b0e3e6;strokeColor=#0e8088;" vertex="1" parent="1">
          <mxGeometry x="580" y="490" width="150" height="120" as="geometry" />
        </mxCell>
        <mxCell id="LygwtZGYXbD4ZYPNaPvQ-9" value="" style="rounded=1;whiteSpace=wrap;html=1;fillColor=#b0e3e6;strokeColor=#0e8088;" vertex="1" parent="1">
          <mxGeometry x="825" y="490" width="150" height="120" as="geometry" />
        </mxCell>
        <mxCell id="LygwtZGYXbD4ZYPNaPvQ-13" value="Fri leverans&amp;nbsp;" style="rounded=0;whiteSpace=wrap;html=1;fillColor=#cce5ff;strokeColor=#36393d;" vertex="1" parent="1">
          <mxGeometry x="120" y="630" width="120" height="20" as="geometry" />
        </mxCell>
        <mxCell id="LygwtZGYXbD4ZYPNaPvQ-14" value="Fri Leverans" style="rounded=0;whiteSpace=wrap;html=1;fillColor=#cce5ff;strokeColor=#36393d;" vertex="1" parent="1">
          <mxGeometry x="120" y="660" width="120" height="50" as="geometry" />
        </mxCell>
        <mxCell id="LygwtZGYXbD4ZYPNaPvQ-25" style="edgeStyle=orthogonalEdgeStyle;rounded=0;orthogonalLoop=1;jettySize=auto;html=1;" edge="1" parent="1">
          <mxGeometry relative="1" as="geometry">
            <mxPoint x="655" y="700" as="targetPoint" />
            <mxPoint x="655" y="700" as="sourcePoint" />
          </mxGeometry>
        </mxCell>
        <mxCell id="LygwtZGYXbD4ZYPNaPvQ-15" value="24/7 Kundtjänst" style="rounded=0;whiteSpace=wrap;html=1;fillColor=#cce5ff;strokeColor=#36393d;" vertex="1" parent="1">
          <mxGeometry x="600" y="630" width="120" height="20" as="geometry" />
        </mxCell>
        <mxCell id="LygwtZGYXbD4ZYPNaPvQ-16" value="24/7 kundtjänst text" style="rounded=0;whiteSpace=wrap;html=1;fillColor=#cce5ff;strokeColor=#36393d;" vertex="1" parent="1">
          <mxGeometry x="600" y="660" width="120" height="50" as="geometry" />
        </mxCell>
        <mxCell id="LygwtZGYXbD4ZYPNaPvQ-17" value="30 dagars öppet köp" style="rounded=0;whiteSpace=wrap;html=1;fillColor=#cce5ff;strokeColor=#36393d;" vertex="1" parent="1">
          <mxGeometry x="840" y="630" width="120" height="20" as="geometry" />
        </mxCell>
        <mxCell id="LygwtZGYXbD4ZYPNaPvQ-18" value="30 dagars öppet köp text" style="rounded=0;whiteSpace=wrap;html=1;fillColor=#cce5ff;strokeColor=#36393d;" vertex="1" parent="1">
          <mxGeometry x="840" y="660" width="120" height="50" as="geometry" />
        </mxCell>
        <mxCell id="LygwtZGYXbD4ZYPNaPvQ-19" value="" style="rounded=1;whiteSpace=wrap;html=1;fillColor=#b0e3e6;strokeColor=#0e8088;" vertex="1" parent="1">
          <mxGeometry x="330" y="490" width="150" height="120" as="geometry" />
        </mxCell>
        <mxCell id="LygwtZGYXbD4ZYPNaPvQ-20" value="Fri leverans&amp;nbsp;" style="rounded=0;whiteSpace=wrap;html=1;fillColor=#cce5ff;strokeColor=#36393d;" vertex="1" parent="1">
          <mxGeometry x="345" y="630" width="120" height="20" as="geometry" />
        </mxCell>
        <mxCell id="LygwtZGYXbD4ZYPNaPvQ-21" value="Fri Leverans" style="rounded=0;whiteSpace=wrap;html=1;fillColor=#cce5ff;strokeColor=#36393d;" vertex="1" parent="1">
          <mxGeometry x="345" y="660" width="120" height="50" as="geometry" />
        </mxCell>
        <mxCell id="LygwtZGYXbD4ZYPNaPvQ-24" value="&lt;font style=&quot;font-size: 40px;&quot;&gt;Footer&lt;/font&gt;" style="rounded=1;whiteSpace=wrap;html=1;fillColor=#cce5ff;strokeColor=#36393d;" vertex="1" parent="1">
          <mxGeometry y="730" width="1100" height="120" as="geometry" />
        </mxCell>
      </root>
    </mxGraphModel>
  </diagram>
</mxfile>
